<svg xmlns="http://www.w3.org/2000/svg" width="325.985" height="122.718" viewBox="0 0 325.985 122.718">
  <g id="Group_21" data-name="Group 21" transform="translate(-37 -34.893)">
    <line id="Line_1" data-name="Line 1" y1="3.01" x2="37.356" transform="translate(37.121 96.456)" fill="none" stroke="#fff" stroke-miterlimit="10" stroke-width="3"/>
    <line id="Line_2" data-name="Line 2" x1="29.404" y2="25.302" transform="translate(77.311 69.482)" fill="none" stroke="#fff" stroke-miterlimit="10" stroke-width="3"/>
    <line id="Line_3" data-name="Line 3" x1="25.228" y1="39.548" transform="translate(76.524 96.456)" fill="none" stroke="#fff" stroke-miterlimit="10" stroke-width="3"/>
    <line id="Line_4" data-name="Line 4" y1="22.549" transform="translate(107.747 44.301)" fill="none" stroke="#fff" stroke-miterlimit="10" stroke-width="3"/>
    <line id="Line_5" data-name="Line 5" x1="28.117" y1="6.814" transform="translate(110.155 69.173)" fill="none" stroke="#fff" stroke-miterlimit="10" stroke-width="3"/>
    <line id="Line_6" data-name="Line 6" x1="27.312" y2="8.854" transform="translate(105.843 131.253)" fill="none" stroke="#fff" stroke-miterlimit="10" stroke-width="3"/>
    <line id="Line_7" data-name="Line 7" x1="15.681" y2="14.327" transform="translate(88.123 140.466)" fill="none" stroke="#fff" stroke-miterlimit="10" stroke-width="3"/>
    <ellipse id="Ellipse_1" data-name="Ellipse 1" cx="2.29" cy="2.221" rx="2.29" ry="2.221" transform="translate(73.511 93.612)" fill="#fff" stroke="#fff" stroke-miterlimit="10" stroke-width="3"/>
    <ellipse id="Ellipse_2" data-name="Ellipse 2" cx="2.29" cy="2.221" rx="2.29" ry="2.221" transform="translate(105.41 67.774)" fill="#fff" stroke="#fff" stroke-miterlimit="10" stroke-width="3"/>
    <ellipse id="Ellipse_3" data-name="Ellipse 3" cx="2.29" cy="2.221" rx="2.29" ry="2.221" transform="translate(101.247 136.143)" fill="#fff" stroke="#fff" stroke-miterlimit="10" stroke-width="3"/>
    <ellipse id="Ellipse_4" data-name="Ellipse 4" cx="1.632" cy="1.925" rx="1.632" ry="1.925" transform="translate(179.913 148.975)" fill="#fff" stroke="#fff" stroke-miterlimit="10" stroke-width="3"/>
    <ellipse id="Ellipse_5" data-name="Ellipse 5" cx="1.632" cy="1.925" rx="1.632" ry="1.925" transform="translate(264.486 150.606)" fill="#fff" stroke="#fff" stroke-miterlimit="10" stroke-width="3"/>
    <ellipse id="Ellipse_6" data-name="Ellipse 6" cx="2.29" cy="2.221" rx="2.29" ry="2.221" transform="translate(343.135 116.555)" fill="#fff" stroke="#fff" stroke-miterlimit="10" stroke-width="3"/>
    <ellipse id="Ellipse_7" data-name="Ellipse 7" cx="2.29" cy="2.221" rx="2.29" ry="2.221" transform="translate(327.43 104.377)" fill="#fff" stroke="#fff" stroke-miterlimit="10" stroke-width="3"/>
    <ellipse id="Ellipse_8" data-name="Ellipse 8" cx="2.29" cy="2.221" rx="2.29" ry="2.221" transform="translate(303.83 71.004)" fill="#fff" stroke="#fff" stroke-miterlimit="10" stroke-width="3"/>
    <ellipse id="Ellipse_9" data-name="Ellipse 9" cx="2.29" cy="2.221" rx="2.29" ry="2.221" transform="translate(273.951 45.888)" fill="#fff" stroke="#fff" stroke-miterlimit="10" stroke-width="3"/>
    <ellipse id="Ellipse_10" data-name="Ellipse 10" cx="2.29" cy="2.221" rx="2.29" ry="2.221" transform="translate(260.161 59.968)" fill="#fff" stroke="#fff" stroke-miterlimit="10" stroke-width="3"/>
    <ellipse id="Ellipse_11" data-name="Ellipse 11" cx="2.29" cy="2.221" rx="2.29" ry="2.221" transform="translate(198.266 70.929)" fill="#fff" stroke="#fff" stroke-miterlimit="10" stroke-width="3"/>
    <ellipse id="Ellipse_12" data-name="Ellipse 12" cx="2.29" cy="2.221" rx="2.29" ry="2.221" transform="translate(174.899 51.902)" fill="#fff" stroke="#fff" stroke-miterlimit="10" stroke-width="3"/>
    <ellipse id="Ellipse_13" data-name="Ellipse 13" cx="2.29" cy="2.221" rx="2.29" ry="2.221" transform="translate(106.143 66.758)" fill="#fff" stroke="#fff" stroke-miterlimit="10" stroke-width="3"/>
    <ellipse id="Ellipse_14" data-name="Ellipse 14" cx="2.29" cy="2.221" rx="2.29" ry="2.221" transform="translate(174.808 50.974)" fill="#fff" stroke="#fff" stroke-miterlimit="10" stroke-width="3"/>
    <ellipse id="Ellipse_15" data-name="Ellipse 15" cx="2.29" cy="2.221" rx="2.29" ry="2.221" transform="translate(197.791 70.382)" fill="#fff" stroke="#fff" stroke-miterlimit="10" stroke-width="3"/>
    <ellipse id="Ellipse_16" data-name="Ellipse 16" cx="1.632" cy="1.925" rx="1.632" ry="1.925" transform="translate(179.574 148.831)" fill="#fff" stroke="#fff" stroke-miterlimit="10" stroke-width="3"/>
    <ellipse id="Ellipse_17" data-name="Ellipse 17" cx="1.424" cy="1.584" rx="1.424" ry="1.584" transform="translate(207.843 137.383)" fill="#fff" stroke="#fff" stroke-miterlimit="10" stroke-width="3"/>
    <ellipse id="Ellipse_18" data-name="Ellipse 18" cx="2.29" cy="2.221" rx="2.29" ry="2.221" transform="translate(260.836 60.943)" fill="#fff" stroke="#fff" stroke-miterlimit="10" stroke-width="3"/>
    <ellipse id="Ellipse_19" data-name="Ellipse 19" cx="2.29" cy="2.221" rx="2.29" ry="2.221" transform="translate(273.86 45.722)" fill="#fff" stroke="#fff" stroke-miterlimit="10" stroke-width="3"/>
    <ellipse id="Ellipse_20" data-name="Ellipse 20" cx="2.29" cy="2.221" rx="2.29" ry="2.221" transform="translate(304.122 70.837)" fill="#fff" stroke="#fff" stroke-miterlimit="10" stroke-width="3"/>
    <ellipse id="Ellipse_21" data-name="Ellipse 21" cx="2.29" cy="2.221" rx="2.29" ry="2.221" transform="translate(343.426 116.388)" fill="#fff" stroke="#fff" stroke-miterlimit="10" stroke-width="3"/>
    <ellipse id="Ellipse_22" data-name="Ellipse 22" cx="2.29" cy="2.221" rx="2.29" ry="2.221" transform="translate(327.338 104.211)" fill="#fff" stroke="#fff" stroke-miterlimit="10" stroke-width="3"/>
    <ellipse id="Ellipse_23" data-name="Ellipse 23" cx="2.29" cy="2.221" rx="2.29" ry="2.221" transform="translate(101.635 136.936)" fill="#fff" stroke="#fff" stroke-miterlimit="10" stroke-width="3"/>
    <text id="C" transform="translate(115.588 109.805) rotate(-0.006)" fill="#fff" font-size="28" font-family="ColonnaMT, Colonna MT"><tspan x="0" y="0">C</tspan></text>
    <line id="Line_8" data-name="Line 8" x1="18.77" y2="23.594" transform="translate(157.816 53.307)" fill="none" stroke="#fff" stroke-miterlimit="10" stroke-width="3"/>
    <line id="Line_9" data-name="Line 9" x2="42.52" y2="36.152" transform="translate(156.74 36.036)" fill="none" stroke="#fff" stroke-miterlimit="10" stroke-width="3"/>
    <line id="Line_10" data-name="Line 10" x1="29.724" y2="29.724" transform="translate(202.193 41.307)" fill="none" stroke="#fff" stroke-miterlimit="10" stroke-width="3"/>
    <line id="Line_11" data-name="Line 11" x1="32.802" y1="18.938" transform="translate(147.966 130.489)" fill="none" stroke="#fff" stroke-miterlimit="10" stroke-width="3"/>
    <line id="Line_12" data-name="Line 12" x1="26.736" y2="11.942" transform="translate(181.13 139.782)" fill="none" stroke="#fff" stroke-miterlimit="10" stroke-width="3"/>
    <line id="Line_13" data-name="Line 13" x1="26.409" y1="16.868" transform="translate(239.252 135.688)" fill="none" stroke="#fff" stroke-miterlimit="10" stroke-width="3"/>
    <line id="Line_14" data-name="Line 14" y1="15.144" x2="30.147" transform="translate(266.077 138.076)" fill="none" stroke="#fff" stroke-miterlimit="10" stroke-width="3"/>
    <line id="Line_15" data-name="Line 15" y1="31.205" x2="26.814" transform="translate(249.591 47.674)" fill="none" stroke="#fff" stroke-miterlimit="10" stroke-width="3"/>
    <line id="Line_16" data-name="Line 16" x2="21.694" y2="18.304" transform="translate(241.764 44.349)" fill="none" stroke="#fff" stroke-miterlimit="10" stroke-width="3"/>
    <line id="Line_17" data-name="Line 17" x2="30.669" y2="26.075" transform="translate(276.257 47.633)" fill="none" stroke="#fff" stroke-miterlimit="10" stroke-width="3"/>
    <line id="Line_18" data-name="Line 18" x1="25.176" y2="25.015" transform="translate(306.162 49.38)" fill="none" stroke="#fff" stroke-miterlimit="10" stroke-width="3"/>
    <line id="Line_19" data-name="Line 19" x1="32.177" y2="27.78" transform="translate(329.5 78.764)" fill="none" stroke="#fff" stroke-miterlimit="10" stroke-width="3"/>
    <line id="Line_20" data-name="Line 20" x1="31.028" y1="24.355" transform="translate(331.032 106.544)" fill="none" stroke="#fff" stroke-miterlimit="10" stroke-width="3"/>
    <line id="Line_21" data-name="Line 21" y1="24.355" x2="26.431" transform="translate(319.157 118.721)" fill="none" stroke="#fff" stroke-miterlimit="10" stroke-width="3"/>
    <text id="S" transform="translate(176.653 108.463) rotate(-0.006)" fill="#fff" font-size="27" font-family="ColonnaMT, Colonna MT"><tspan x="0" y="0">S</tspan></text>
    <text id="E" transform="translate(287.868 110.805) rotate(-0.006)" fill="#fff" font-size="29" font-family="ColonnaMT, Colonna MT"><tspan x="0" y="0">E</tspan></text>
    <text id="I" transform="translate(233.966 108.463) rotate(-0.006)" fill="#fff" font-size="27" font-family="ColonnaMT, Colonna MT"><tspan x="0" y="0">I</tspan></text>
    <line id="Line_22" data-name="Line 22" x2="19.661" y2="11.351" transform="translate(284.562 144.961)" fill="none" stroke="#fff" stroke-miterlimit="10" stroke-width="3"/>
    <ellipse id="Ellipse_24" data-name="Ellipse 24" cx="1.632" cy="1.925" rx="1.632" ry="1.925" transform="translate(282.289 142.324)" fill="#fff" stroke="#fff" stroke-miterlimit="10" stroke-width="3"/>
  </g>
</svg>
