<svg xmlns="http://www.w3.org/2000/svg" width="953.529" height="355.004" viewBox="0 0 953.529 355.004">
  <g id="Group_20" data-name="Group 20" transform="translate(-441 -110.607)">
    <line id="Line_1" data-name="Line 1" y1="8.824" x2="109.5" transform="translate(441.121 288.857)" fill="none" stroke="#fff" stroke-miterlimit="10" stroke-width="3"/>
    <line id="Line_2" data-name="Line 2" x1="86.19" y2="74.167" transform="translate(558.928 209.791)" fill="none" stroke="#fff" stroke-miterlimit="10" stroke-width="3"/>
    <line id="Line_3" data-name="Line 3" x1="73.951" y1="115.926" transform="translate(556.621 288.857)" fill="none" stroke="#fff" stroke-miterlimit="10" stroke-width="3"/>
    <line id="Line_4" data-name="Line 4" y1="66.098" transform="translate(648.143 135.977)" fill="none" stroke="#fff" stroke-miterlimit="10" stroke-width="3"/>
    <line id="Line_5" data-name="Line 5" x1="82.419" y1="19.974" transform="translate(655.202 208.883)" fill="none" stroke="#fff" stroke-miterlimit="10" stroke-width="3"/>
    <line id="Line_6" data-name="Line 6" x1="80.058" y2="25.953" transform="translate(642.563 390.857)" fill="none" stroke="#fff" stroke-miterlimit="10" stroke-width="3"/>
    <line id="Line_7" data-name="Line 7" x1="45.964" y2="41.995" transform="translate(590.621 417.862)" fill="none" stroke="#fff" stroke-miterlimit="10" stroke-width="3"/>
    <ellipse id="Ellipse_1" data-name="Ellipse 1" cx="6.713" cy="6.51" rx="6.713" ry="6.51" transform="translate(547.791 280.521)" fill="#fff" stroke="#fff" stroke-miterlimit="10" stroke-width="3"/>
    <ellipse id="Ellipse_2" data-name="Ellipse 2" cx="6.713" cy="6.51" rx="6.713" ry="6.51" transform="translate(641.293 204.784)" fill="#fff" stroke="#fff" stroke-miterlimit="10" stroke-width="3"/>
    <ellipse id="Ellipse_3" data-name="Ellipse 3" cx="6.713" cy="6.51" rx="6.713" ry="6.51" transform="translate(629.091 405.192)" fill="#fff" stroke="#fff" stroke-miterlimit="10" stroke-width="3"/>
    <ellipse id="Ellipse_4" data-name="Ellipse 4" cx="4.783" cy="5.642" rx="4.783" ry="5.642" transform="translate(859.682 442.806)" fill="#fff" stroke="#fff" stroke-miterlimit="10" stroke-width="3"/>
    <ellipse id="Ellipse_5" data-name="Ellipse 5" cx="4.783" cy="5.642" rx="4.783" ry="5.642" transform="translate(1107.589 447.585)" fill="#fff" stroke="#fff" stroke-miterlimit="10" stroke-width="3"/>
    <ellipse id="Ellipse_6" data-name="Ellipse 6" cx="6.713" cy="6.51" rx="6.713" ry="6.51" transform="translate(1338.131 347.774)" fill="#fff" stroke="#fff" stroke-miterlimit="10" stroke-width="3"/>
    <ellipse id="Ellipse_7" data-name="Ellipse 7" cx="6.713" cy="6.51" rx="6.713" ry="6.51" transform="translate(1292.093 312.078)" fill="#fff" stroke="#fff" stroke-miterlimit="10" stroke-width="3"/>
    <ellipse id="Ellipse_8" data-name="Ellipse 8" cx="6.713" cy="6.51" rx="6.713" ry="6.51" transform="translate(1222.917 214.252)" fill="#fff" stroke="#fff" stroke-miterlimit="10" stroke-width="3"/>
    <ellipse id="Ellipse_9" data-name="Ellipse 9" cx="6.713" cy="6.51" rx="6.713" ry="6.51" transform="translate(1135.334 140.63)" fill="#fff" stroke="#fff" stroke-miterlimit="10" stroke-width="3"/>
    <ellipse id="Ellipse_10" data-name="Ellipse 10" cx="6.713" cy="6.51" rx="6.713" ry="6.51" transform="translate(1094.91 181.903)" fill="#fff" stroke="#fff" stroke-miterlimit="10" stroke-width="3"/>
    <ellipse id="Ellipse_11" data-name="Ellipse 11" cx="6.713" cy="6.51" rx="6.713" ry="6.51" transform="translate(913.479 214.032)" fill="#fff" stroke="#fff" stroke-miterlimit="10" stroke-width="3"/>
    <ellipse id="Ellipse_12" data-name="Ellipse 12" cx="6.713" cy="6.51" rx="6.713" ry="6.51" transform="translate(844.985 158.258)" fill="#fff" stroke="#fff" stroke-miterlimit="10" stroke-width="3"/>
    <ellipse id="Ellipse_13" data-name="Ellipse 13" cx="6.713" cy="6.51" rx="6.713" ry="6.51" transform="translate(643.442 201.805)" fill="#fff" stroke="#fff" stroke-miterlimit="10" stroke-width="3"/>
    <ellipse id="Ellipse_14" data-name="Ellipse 14" cx="6.713" cy="6.51" rx="6.713" ry="6.51" transform="translate(844.717 155.539)" fill="#fff" stroke="#fff" stroke-miterlimit="10" stroke-width="3"/>
    <ellipse id="Ellipse_15" data-name="Ellipse 15" cx="6.713" cy="6.51" rx="6.713" ry="6.51" transform="translate(912.087 212.428)" fill="#fff" stroke="#fff" stroke-miterlimit="10" stroke-width="3"/>
    <ellipse id="Ellipse_16" data-name="Ellipse 16" cx="4.783" cy="5.642" rx="4.783" ry="5.642" transform="translate(858.689 442.382)" fill="#fff" stroke="#fff" stroke-miterlimit="10" stroke-width="3"/>
    <ellipse id="Ellipse_17" data-name="Ellipse 17" cx="4.174" cy="4.642" rx="4.174" ry="4.642" transform="translate(941.554 408.826)" fill="#fff" stroke="#fff" stroke-miterlimit="10" stroke-width="3"/>
    <ellipse id="Ellipse_18" data-name="Ellipse 18" cx="6.713" cy="6.51" rx="6.713" ry="6.51" transform="translate(1096.888 184.761)" fill="#fff" stroke="#fff" stroke-miterlimit="10" stroke-width="3"/>
    <ellipse id="Ellipse_19" data-name="Ellipse 19" cx="6.713" cy="6.51" rx="6.713" ry="6.51" transform="translate(1135.066 140.142)" fill="#fff" stroke="#fff" stroke-miterlimit="10" stroke-width="3"/>
    <ellipse id="Ellipse_20" data-name="Ellipse 20" cx="6.713" cy="6.51" rx="6.713" ry="6.51" transform="translate(1223.772 213.763)" fill="#fff" stroke="#fff" stroke-miterlimit="10" stroke-width="3"/>
    <ellipse id="Ellipse_21" data-name="Ellipse 21" cx="6.713" cy="6.51" rx="6.713" ry="6.51" transform="translate(1338.983 347.285)" fill="#fff" stroke="#fff" stroke-miterlimit="10" stroke-width="3"/>
    <ellipse id="Ellipse_22" data-name="Ellipse 22" cx="6.713" cy="6.51" rx="6.713" ry="6.51" transform="translate(1291.825 311.59)" fill="#fff" stroke="#fff" stroke-miterlimit="10" stroke-width="3"/>
    <ellipse id="Ellipse_23" data-name="Ellipse 23" cx="6.713" cy="6.51" rx="6.713" ry="6.51" transform="translate(630.229 407.516)" fill="#fff" stroke="#fff" stroke-miterlimit="10" stroke-width="3"/>
    <text id="C" transform="translate(671.128 333.363) rotate(-0.006)" fill="#fff" font-size="90" font-family="ColonnaMT, Colonna MT"><tspan x="0" y="0">C</tspan></text>
    <line id="Line_8" data-name="Line 8" x1="55.02" y2="69.16" transform="translate(794.91 162.378)" fill="none" stroke="#fff" stroke-miterlimit="10" stroke-width="3"/>
    <line id="Line_9" data-name="Line 9" x2="124.637" y2="105.97" transform="translate(791.756 111.75)" fill="none" stroke="#fff" stroke-miterlimit="10" stroke-width="3"/>
    <line id="Line_10" data-name="Line 10" x1="87.129" y2="87.129" transform="translate(924.99 127.201)" fill="none" stroke="#fff" stroke-miterlimit="10" stroke-width="3"/>
    <line id="Line_11" data-name="Line 11" x1="96.151" y1="55.513" transform="translate(766.037 388.617)" fill="none" stroke="#fff" stroke-miterlimit="10" stroke-width="3"/>
    <line id="Line_12" data-name="Line 12" x1="78.37" y2="35.004" transform="translate(863.251 415.857)" fill="none" stroke="#fff" stroke-miterlimit="10" stroke-width="3"/>
    <line id="Line_13" data-name="Line 13" x1="77.412" y1="49.444" transform="translate(1033.621 403.857)" fill="none" stroke="#fff" stroke-miterlimit="10" stroke-width="3"/>
    <line id="Line_14" data-name="Line 14" y1="44.391" x2="88.368" transform="translate(1112.253 410.857)" fill="none" stroke="#fff" stroke-miterlimit="10" stroke-width="3"/>
    <line id="Line_15" data-name="Line 15" y1="91.469" x2="78.6" transform="translate(1063.926 145.866)" fill="none" stroke="#fff" stroke-miterlimit="10" stroke-width="3"/>
    <line id="Line_16" data-name="Line 16" x2="63.591" y2="53.655" transform="translate(1040.983 136.118)" fill="none" stroke="#fff" stroke-miterlimit="10" stroke-width="3"/>
    <line id="Line_17" data-name="Line 17" x2="89.898" y2="76.434" transform="translate(1142.093 145.745)" fill="none" stroke="#fff" stroke-miterlimit="10" stroke-width="3"/>
    <line id="Line_18" data-name="Line 18" x1="73.799" y2="73.325" transform="translate(1229.753 150.866)" fill="none" stroke="#fff" stroke-miterlimit="10" stroke-width="3"/>
    <line id="Line_19" data-name="Line 19" x1="94.32" y2="81.43" transform="translate(1298.162 236.999)" fill="none" stroke="#fff" stroke-miterlimit="10" stroke-width="3"/>
    <line id="Line_20" data-name="Line 20" x1="90.951" y1="71.39" transform="translate(1302.652 318.429)" fill="none" stroke="#fff" stroke-miterlimit="10" stroke-width="3"/>
    <line id="Line_21" data-name="Line 21" y1="71.39" x2="77.477" transform="translate(1267.844 354.124)" fill="none" stroke="#fff" stroke-miterlimit="10" stroke-width="3"/>
    <text id="S" transform="translate(850.128 332.361) rotate(-0.006)" fill="#fff" font-size="90" font-family="ColonnaMT, Colonna MT"><tspan x="0" y="0">S</tspan></text>
    <text id="E" transform="translate(1176.128 333.362) rotate(-0.006)" fill="#fff" font-size="90" font-family="ColonnaMT, Colonna MT"><tspan x="0" y="0">E</tspan></text>
    <text id="I" transform="translate(1018.128 332.36) rotate(-0.006)" fill="#fff" font-size="90" font-family="ColonnaMT, Colonna MT"><tspan x="0" y="0">I</tspan></text>
    <line id="Line_22" data-name="Line 22" x2="57.632" y2="33.274" transform="translate(1166.436 431.038)" fill="none" stroke="#fff" stroke-miterlimit="10" stroke-width="3"/>
    <ellipse id="Ellipse_24" data-name="Ellipse 24" cx="4.783" cy="5.642" rx="4.783" ry="5.642" transform="translate(1159.775 423.31)" fill="#fff" stroke="#fff" stroke-miterlimit="10" stroke-width="3"/>
  </g>
</svg>
