<svg xmlns="http://www.w3.org/2000/svg" width="314.906" height="122.796" viewBox="0 0 314.906 122.796">
  <g id="Symbol_2_7" data-name="Symbol 2 – 7" transform="translate(-44.019 -54.008)">
    <line id="Line_1" data-name="Line 1" y1="2.015" x2="34.733" transform="translate(44.105 110.831)" fill="none" stroke="#fff" stroke-miterlimit="10" stroke-width="3"/>
    <line id="Line_2" data-name="Line 2" x1="28.315" y2="24.365" transform="translate(78.669 85.8)" fill="none" stroke="#fff" stroke-miterlimit="10" stroke-width="3"/>
    <line id="Line_3" data-name="Line 3" x1="26.296" y1="36.026" transform="translate(76.312 110.156)" fill="none" stroke="#fff" stroke-miterlimit="10" stroke-width="3"/>
    <line id="Line_4" data-name="Line 4" y1="21.714" transform="translate(106.936 64.095)" fill="none" stroke="#fff" stroke-miterlimit="10" stroke-width="3"/>
    <line id="Line_5" data-name="Line 5" x1="28.127" y1="12.173" transform="translate(106.936 85.81)" fill="none" stroke="#fff" stroke-miterlimit="10" stroke-width="3"/>
    <line id="Line_6" data-name="Line 6" x1="29.125" y2="15.957" transform="translate(103.441 131.706)" fill="none" stroke="#fff" stroke-miterlimit="10" stroke-width="3"/>
    <line id="Line_7" data-name="Line 7" x1="0.499" y2="30.433" transform="translate(102.942 146.347)" fill="none" stroke="#fff" stroke-miterlimit="10" stroke-width="3"/>
    <ellipse id="Ellipse_1" data-name="Ellipse 1" cx="2.205" cy="2.139" rx="2.205" ry="2.139" transform="translate(73.633 108.641)" fill="#fff" stroke="#fff" stroke-miterlimit="10" stroke-width="3"/>
    <ellipse id="Ellipse_2" data-name="Ellipse 2" cx="2.205" cy="2.139" rx="2.205" ry="2.139" transform="translate(104.622 84.729)" fill="#fff" stroke="#fff" stroke-miterlimit="10" stroke-width="3"/>
    <ellipse id="Ellipse_3" data-name="Ellipse 3" cx="2.205" cy="2.139" rx="2.205" ry="2.139" transform="translate(100.933 144.827)" fill="#fff" stroke="#fff" stroke-miterlimit="10" stroke-width="3"/>
    <ellipse id="Ellipse_4" data-name="Ellipse 4" cx="1.571" cy="1.854" rx="1.571" ry="1.854" transform="translate(186.866 161.28)" fill="#fff" stroke="#fff" stroke-miterlimit="10" stroke-width="3"/>
    <ellipse id="Ellipse_5" data-name="Ellipse 5" cx="1.571" cy="1.854" rx="1.571" ry="1.854" transform="translate(257.796 162.85)" fill="#fff" stroke="#fff" stroke-miterlimit="10" stroke-width="3"/>
    <ellipse id="Ellipse_6" data-name="Ellipse 6" cx="2.205" cy="2.139" rx="2.205" ry="2.139" transform="translate(339.774 129.403)" fill="#fff" stroke="#fff" stroke-miterlimit="10" stroke-width="3"/>
    <ellipse id="Ellipse_7" data-name="Ellipse 7" cx="2.205" cy="2.139" rx="2.205" ry="2.139" transform="translate(324.65 117.677)" fill="#fff" stroke="#fff" stroke-miterlimit="10" stroke-width="3"/>
    <ellipse id="Ellipse_8" data-name="Ellipse 8" cx="2.205" cy="2.139" rx="2.205" ry="2.139" transform="translate(300.282 85.539)" fill="#fff" stroke="#fff" stroke-miterlimit="10" stroke-width="3"/>
    <ellipse id="Ellipse_9" data-name="Ellipse 9" cx="2.205" cy="2.139" rx="2.205" ry="2.139" transform="translate(271.509 61.353)" fill="#fff" stroke="#fff" stroke-miterlimit="10" stroke-width="3"/>
    <ellipse id="Ellipse_10" data-name="Ellipse 10" cx="2.205" cy="2.139" rx="2.205" ry="2.139" transform="translate(258.229 74.912)" fill="#fff" stroke="#fff" stroke-miterlimit="10" stroke-width="3"/>
    <ellipse id="Ellipse_11" data-name="Ellipse 11" cx="2.205" cy="2.139" rx="2.205" ry="2.139" transform="translate(192.056 88.752)" fill="#fff" stroke="#fff" stroke-miterlimit="10" stroke-width="3"/>
    <ellipse id="Ellipse_12" data-name="Ellipse 12" cx="2.205" cy="2.139" rx="2.205" ry="2.139" transform="translate(169.554 70.429)" fill="#fff" stroke="#fff" stroke-miterlimit="10" stroke-width="3"/>
    <ellipse id="Ellipse_13" data-name="Ellipse 13" cx="2.205" cy="2.139" rx="2.205" ry="2.139" transform="translate(105.272 83.835)" fill="#fff" stroke="#fff" stroke-miterlimit="10" stroke-width="3"/>
    <ellipse id="Ellipse_14" data-name="Ellipse 14" cx="2.205" cy="2.139" rx="2.205" ry="2.139" transform="translate(169.466 69.536)" fill="#fff" stroke="#fff" stroke-miterlimit="10" stroke-width="3"/>
    <ellipse id="Ellipse_15" data-name="Ellipse 15" cx="2.205" cy="2.139" rx="2.205" ry="2.139" transform="translate(191.599 88.225)" fill="#fff" stroke="#fff" stroke-miterlimit="10" stroke-width="3"/>
    <ellipse id="Ellipse_16" data-name="Ellipse 16" cx="1.571" cy="1.854" rx="1.571" ry="1.854" transform="translate(186.54 161.141)" fill="#fff" stroke="#fff" stroke-miterlimit="10" stroke-width="3"/>
    <ellipse id="Ellipse_17" data-name="Ellipse 17" cx="1.207" cy="1.854" rx="1.207" ry="1.854" transform="translate(221.318 141.247)" fill="#fff" stroke="#fff" stroke-miterlimit="10" stroke-width="3"/>
    <ellipse id="Ellipse_18" data-name="Ellipse 18" cx="2.205" cy="2.139" rx="2.205" ry="2.139" transform="translate(258.879 75.851)" fill="#fff" stroke="#fff" stroke-miterlimit="10" stroke-width="3"/>
    <ellipse id="Ellipse_19" data-name="Ellipse 19" cx="2.205" cy="2.139" rx="2.205" ry="2.139" transform="translate(271.421 61.193)" fill="#fff" stroke="#fff" stroke-miterlimit="10" stroke-width="3"/>
    <ellipse id="Ellipse_20" data-name="Ellipse 20" cx="2.205" cy="2.139" rx="2.205" ry="2.139" transform="translate(300.563 85.379)" fill="#fff" stroke="#fff" stroke-miterlimit="10" stroke-width="3"/>
    <ellipse id="Ellipse_21" data-name="Ellipse 21" cx="2.205" cy="2.139" rx="2.205" ry="2.139" transform="translate(340.054 129.243)" fill="#fff" stroke="#fff" stroke-miterlimit="10" stroke-width="3"/>
    <ellipse id="Ellipse_22" data-name="Ellipse 22" cx="2.205" cy="2.139" rx="2.205" ry="2.139" transform="translate(324.562 117.516)" fill="#fff" stroke="#fff" stroke-miterlimit="10" stroke-width="3"/>
    <ellipse id="Ellipse_23" data-name="Ellipse 23" cx="2.205" cy="2.139" rx="2.205" ry="2.139" transform="translate(101.277 145.524)" fill="#fff" stroke="#fff" stroke-miterlimit="10" stroke-width="3"/>
    <text id="C" transform="translate(103.467 121.732) rotate(-0.006)" fill="#fff" font-size="30" font-family="ColonnaMT, Colonna MT"><tspan x="0" y="0">C</tspan></text>
    <line id="Line_8" data-name="Line 8" x1="18.075" y2="22.72" transform="translate(153.104 71.783)" fill="none" stroke="#fff" stroke-miterlimit="10" stroke-width="3"/>
    <line id="Line_9" data-name="Line 9" x2="40.945" y2="34.813" transform="translate(152.068 55.151)" fill="none" stroke="#fff" stroke-miterlimit="10" stroke-width="3"/>
    <line id="Line_10" data-name="Line 10" x1="28.623" y2="28.623" transform="translate(195.837 60.227)" fill="none" stroke="#fff" stroke-miterlimit="10" stroke-width="3"/>
    <line id="Line_11" data-name="Line 11" x1="31.587" y1="18.237" transform="translate(156.102 143.478)" fill="none" stroke="#fff" stroke-miterlimit="10" stroke-width="3"/>
    <line id="Line_12" data-name="Line 12" x1="35.222" y2="22.361" transform="translate(188.039 141.565)" fill="none" stroke="#fff" stroke-miterlimit="10" stroke-width="3"/>
    <line id="Line_13" data-name="Line 13" x1="38.726" y1="22.326" transform="translate(220.201 142.402)" fill="none" stroke="#fff" stroke-miterlimit="10" stroke-width="3"/>
    <line id="Line_14" data-name="Line 14" y1="19.573" x2="24.96" transform="translate(259.328 145.795)" fill="none" stroke="#fff" stroke-miterlimit="10" stroke-width="3"/>
    <line id="Line_15" data-name="Line 15" y1="30.049" x2="25.821" transform="translate(248.051 63.073)" fill="none" stroke="#fff" stroke-miterlimit="10" stroke-width="3"/>
    <line id="Line_16" data-name="Line 16" x2="20.891" y2="17.627" transform="translate(240.514 59.871)" fill="none" stroke="#fff" stroke-miterlimit="10" stroke-width="3"/>
    <line id="Line_17" data-name="Line 17" x2="29.533" y2="25.11" transform="translate(273.73 63.033)" fill="none" stroke="#fff" stroke-miterlimit="10" stroke-width="3"/>
    <line id="Line_18" data-name="Line 18" x1="24.244" y2="24.089" transform="translate(304.499 65.044)" fill="none" stroke="#fff" stroke-miterlimit="10" stroke-width="3"/>
    <line id="Line_19" data-name="Line 19" x1="30.986" y2="26.751" transform="translate(326.644 93.012)" fill="none" stroke="#fff" stroke-miterlimit="10" stroke-width="3"/>
    <line id="Line_20" data-name="Line 20" x1="29.879" y1="23.453" transform="translate(328.119 119.763)" fill="none" stroke="#fff" stroke-miterlimit="10" stroke-width="3"/>
    <line id="Line_21" data-name="Line 21" y1="23.453" x2="25.453" transform="translate(316.684 131.49)" fill="none" stroke="#fff" stroke-miterlimit="10" stroke-width="3"/>
    <text id="S" transform="translate(169.17 121.097) rotate(-0.006)" fill="#fff" font-size="30" font-family="ColonnaMT, Colonna MT"><tspan x="0" y="0">S</tspan></text>
    <text id="E" transform="translate(289.258 121.014) rotate(-0.006)" fill="#fff" font-size="30" font-family="ColonnaMT, Colonna MT"><tspan x="0" y="0">E</tspan></text>
    <text id="I" transform="translate(234.161 121.125) rotate(-0.006)" fill="#fff" font-size="30" font-family="ColonnaMT, Colonna MT"><tspan x="0" y="0">I</tspan></text>
    <line id="Line_22" data-name="Line 22" x2="18.933" y2="10.931" transform="translate(274.171 155.772)" fill="none" stroke="#fff" stroke-miterlimit="10" stroke-width="3"/>
    <ellipse id="Ellipse_24" data-name="Ellipse 24" cx="1.571" cy="1.854" rx="1.571" ry="1.854" transform="translate(271.983 153.89)" fill="#fff" stroke="#fff" stroke-miterlimit="10" stroke-width="3"/>
  </g>
</svg>
